<svg xmlns="http://www.w3.org/2000/svg" width="512" height="512" viewBox="0 0 98.243 98.243">
<path fill="#000000" d="M97.889 12.732a1.998 1.998 0 00-1.646-.866H23.207l-1.413-5.369a2 2 0 00-1.956-1.583H2a2 2 0 00-2 2v3.492a2 2 0 002 2h10.911l14.07 62.582a2 2 0 001.951 1.561h47.61c2.41 0 4.371-1.96 4.371-4.371a4.376 4.376 0 00-4.371-4.371H35.484l-1.171-7.109h44.828c.83 0 1.572-.512 1.869-1.287l17.102-44.83a2 2 0 00-.223-1.849zm-58.99 66.22c-3.963 0-7.188 3.226-7.188 7.188a7.195 7.195 0 007.188 7.188c3.964 0 7.189-3.226 7.189-7.188s-3.225-7.188-7.189-7.188zm33.792 0c-3.963 0-7.188 3.226-7.188 7.188a7.195 7.195 0 007.188 7.188c3.964 0 7.188-3.226 7.188-7.188s-3.223-7.188-7.188-7.188z"/></svg>