<?xml version="1.0" encoding="UTF-8"?>
<svg xmlns="http://www.w3.org/2000/svg" xmlns:xlink="http://www.w3.org/1999/xlink" viewBox="0 0 250 250" width="250px" height="250px">
<g id="surface2853410">
<path style=" stroke:none;fill-rule:nonzero;fill:rgb(100%,100%,100%);fill-opacity:1;" d="M 105 10 C 96.773438 10 90 16.773438 90 25 L 90 35 L 40 35 C 38.195312 34.972656 36.519531 35.921875 35.609375 37.480469 C 34.703125 39.035156 34.703125 40.964844 35.609375 42.519531 C 36.519531 44.078125 38.195312 45.027344 40 45 L 45 45 L 45 225 C 45 233.269531 51.730469 240 60 240 L 190 240 C 198.269531 240 205 233.269531 205 225 L 205 45 L 210 45 C 211.804688 45.027344 213.480469 44.078125 214.390625 42.519531 C 215.296875 40.964844 215.296875 39.035156 214.390625 37.480469 C 213.480469 35.921875 211.804688 34.972656 210 35 L 160 35 L 160 25 C 160 16.773438 153.226562 10 145 10 Z M 105 20 L 145 20 C 147.773438 20 150 22.226562 150 25 L 150 35 L 100 35 L 100 25 C 100 22.226562 102.226562 20 105 20 Z M 95 70 C 97.761719 70 100 72.238281 100 75 L 100 200 C 100 202.765625 97.761719 205 95 205 C 92.238281 205 90 202.765625 90 200 L 90 75 C 90 72.238281 92.238281 70 95 70 Z M 125 70 C 127.761719 70 130 72.238281 130 75 L 130 200 C 130 202.765625 127.761719 205 125 205 C 122.238281 205 120 202.765625 120 200 L 120 75 C 120 72.238281 122.238281 70 125 70 Z M 155 70 C 157.765625 70 160 72.238281 160 75 L 160 200 C 160 202.765625 157.765625 205 155 205 C 152.234375 205 150 202.765625 150 200 L 150 75 C 150 72.238281 152.234375 70 155 70 Z M 155 70 "/>
</g>
</svg>
