<svg xmlns="http://www.w3.org/2000/svg" width="420.21" height="335.5" viewBox="0 0 420.21 335.5">
  <g id="Group_2161" data-name="Group 2161" transform="translate(-1005.972 -103)">
    <g id="Group_2160" data-name="Group 2160" transform="translate(1005.972 103)">
      <g id="Group_2159" data-name="Group 2159" transform="translate(0)">
        <path id="Path_11278" data-name="Path 11278" d="M-536.808,1286.393A297.478,297.478,0,0,1-577.25,1161.57c-1.857-20.563.561-45.23,18.461-55.521,14.551-8.365,33.522-3.423,48.982-9.957,15.084-6.375,23.785-22.364,28.422-38.068s6.452-32.357,13.457-47.158A74.023,74.023,0,0,1-417.346,970.8a74.026,74.026,0,0,1,62.561,15.818c20.146,17.192,32.469,46.142,58.282,52.072,14.108,3.241,28.624-1.565,42.819-4.4s30.74-3.036,41.065,7.111c17.907,17.6,3.677,50.751,17.818,71.5,5.247,7.7,13.788,12.591,19.427,20.006,9.649,12.691,16.479,31.936,15.552,47.852-2.609,44.8-24.107,90.218-42.87,105.64Z" transform="translate(579.224 -969.243)" fill="#eae1c3"/>
        <path id="Path_11279" data-name="Path 11279" d="M-174.282,1016.056" transform="translate(569.677 -970.351)" fill="none" stroke="#707070" stroke-miterlimit="10" stroke-width="1"/>
        <g id="Group_2158" data-name="Group 2158" transform="translate(0 21.774)">
          <g id="Group_2127" data-name="Group 2127" transform="translate(150.28 37.224)">
            <rect id="Rectangle_1107" data-name="Rectangle 1107" width="49.708" height="49.707" fill="#fff"/>
            <rect id="Rectangle_1108" data-name="Rectangle 1108" width="49.707" height="49.707" transform="translate(59.214)" fill="#fff"/>
          </g>
          <g id="Group_2129" data-name="Group 2129" transform="translate(0 31.398)">
            <rect id="Rectangle_1109" data-name="Rectangle 1109" width="3.668" height="210.875" transform="translate(41.767 50.765)" fill="#363636"/>
            <path id="Path_11280" data-name="Path 11280" d="M-510.885,1293.966h-48.61l1.086-2.6a3.368,3.368,0,0,1,3.11-2.073h40.22a3.368,3.368,0,0,1,3.109,2.073Z" transform="translate(578.791 -1029.988)" fill="#363636"/>
            <g id="Group_2128" data-name="Group 2128">
              <path id="Path_11281" data-name="Path 11281" d="M-491.623,1054.7a50.543,50.543,0,0,1-.587,7.742,50.8,50.8,0,0,1-9.89,23.266h-66.683a50.892,50.892,0,0,1-10.476-31.008,50.881,50.881,0,0,1,10.476-31H-502.1A50.876,50.876,0,0,1-491.623,1054.7Z" transform="translate(579.259 -1023.704)" fill="#d1d1d1"/>
            </g>
            <path id="Path_11282" data-name="Path 11282" d="M-491.09,1054.7a50.543,50.543,0,0,1-.587,7.742c-24.866-1.348-53.064-9.813-65.053-38.741h55.163A50.876,50.876,0,0,1-491.09,1054.7Z" transform="translate(578.726 -1023.704)" fill="#bfbfbf"/>
          </g>
          <g id="Group_2133" data-name="Group 2133" transform="translate(288.419)">
            <g id="Group_2130" data-name="Group 2130">
              <path id="Path_11283" data-name="Path 11283" d="M-241.246,1071.914c.88-8.3,4.906-16.414,10.183-22.8-28.214-33.877-17.35-27.11-25.43-41.977-7.228-13.712-20.788-9.291-26.99-15.591,9.675,15.2-7.953,17,3.911,46.64A26.593,26.593,0,0,1-268,1042.418a30.35,30.35,0,0,0-10.266-1.167c11.3,24.026,9.707,35.88,5.045,51.127,6.426.611,14.712,2.6,19.235,7.16-5.526-3.949-12.973-5.316-19.738-5.428-5.279,19.3,17.967,19.239,30.553,36.351,6.945,9.266.507,17.643,5.79-2.469,9.3-34.557,34.9-41.17,8.662-76A40.812,40.812,0,0,0-241.246,1071.914Z" transform="translate(283.85 -991.545)" fill="#d1d1d1"/>
              <path id="Path_11284" data-name="Path 11284" d="M-242.057,1181.619a285,285,0,0,0-35.593-180.45" transform="translate(283.703 -991.773)" fill="none" stroke="#fff" stroke-miterlimit="10" stroke-width="1"/>
              <path id="Path_11285" data-name="Path 11285" d="M-240.7,1110.706c-1.193-13.307,6.06-28.524,15.071-38.527" transform="translate(282.832 -993.453)" fill="none" stroke="#fff" stroke-miterlimit="10" stroke-width="1"/>
              <path id="Path_11286" data-name="Path 11286" d="M-242.927,1099.354a24.6,24.6,0,0,0-21.831-20.434" transform="translate(283.398 -993.612)" fill="none" stroke="#fff" stroke-miterlimit="10" stroke-width="1"/>
              <path id="Path_11287" data-name="Path 11287" d="M-250.314,1064.575c-2.18-7.61,2.68-18.306,6.745-24.284" transform="translate(283.069 -992.698)" fill="none" stroke="#fff" stroke-miterlimit="10" stroke-width="1"/>
              <path id="Path_11288" data-name="Path 11288" d="M-248.968,1071.083c-1.939-6.772-8.474-11.94-18.194-11.356" transform="translate(283.455 -993.157)" fill="none" stroke="#fff" stroke-miterlimit="10" stroke-width="1"/>
              <path id="Path_11289" data-name="Path 11289" d="M-261.712,1032.637c-2.713-6.246-2.93-17.936,1.483-24.679" transform="translate(283.373 -991.933)" fill="none" stroke="#fff" stroke-miterlimit="10" stroke-width="1"/>
              <path id="Path_11290" data-name="Path 11290" d="M-261.857,1033.47c-1.916-4.4-7.594-7.843-15.185-6.783" transform="translate(283.689 -992.372)" fill="none" stroke="#fff" stroke-miterlimit="10" stroke-width="1"/>
            </g>
            <g id="Group_2132" data-name="Group 2132" transform="translate(58.156 70.01)">
              <path id="Path_11291" data-name="Path 11291" d="M-214.967,1226.872a247.459,247.459,0,0,1,30.036-135.436" transform="translate(224.076 -1063.919)" fill="none" stroke="#c7eff9" stroke-miterlimit="10" stroke-width="1"/>
              <path id="Path_11292" data-name="Path 11292" d="M-208.6,1126.587c-.562-4.371-3.618-12.979-9-19.593,5.741-5.383,15.311-9.279,28.657-18.358-8.832,13.725-21.925,74.567-23.879,86.708,3.673-28.418-20.606-48.56-7.6-65.286C-213.679,1115.709-209.441,1122.878-208.6,1126.587Z" transform="translate(224.284 -1063.853)" fill="#bfbfbf"/>
              <g id="Group_2131" data-name="Group 2131" transform="translate(10.664)">
                <path id="Path_11293" data-name="Path 11293" d="M-169.316,1083.152c.571-3.953-1.151-9.624-2.453-13.9,8.389-5.048,16.83-6.5,21.378-5.85-13.723,11.328-13.306,23.554-19.48,36.715-11.686,25.291-37.28,46.542-43.491,79.337,9.558-54.82,17.053-94.17,39.331-108.74C-171.926,1073.847-169.567,1079.356-169.316,1083.152Z" transform="translate(213.362 -1063.252)" fill="#d1d1d1"/>
              </g>
            </g>
          </g>
          <g id="Group_2134" data-name="Group 2134" transform="translate(25.543 124.11)">
            <path id="Path_11294" data-name="Path 11294" d="M-208.533,1218.035h-318.02l7.82-61.7a43.093,43.093,0,0,1,42.75-37.675H-259.1a43.093,43.093,0,0,1,42.75,37.675Z" transform="translate(552.469 -1118.663)" fill="#ededed"/>
            <path id="Path_11295" data-name="Path 11295" d="M-195.2,1219.646v-20.589a12.3,12.3,0,0,0-12.3-12.3h-12.91a5.355,5.355,0,0,0-5.357,5.356v27.536Z" transform="translate(545.352 -1120.274)" fill="#d8d8d8"/>
            <path id="Path_11296" data-name="Path 11296" d="M-526.553,1269.113v30.929a7.194,7.194,0,0,0,7.194,7.193h303.634a7.194,7.194,0,0,0,7.193-7.193v-30.929Z" transform="translate(552.469 -1122.223)" fill="#ededed"/>
            <path id="Path_11297" data-name="Path 11297" d="M-532.92,1219.646v-20.589a12.3,12.3,0,0,1,12.3-12.3h12.91a5.357,5.357,0,0,1,5.357,5.356v27.536Z" transform="translate(552.619 -1120.274)" fill="#d8d8d8"/>
            <path id="Path_11298" data-name="Path 11298" d="M-453.78,1226.8l-49.9-8.365a9.083,9.083,0,0,1-7.455-10.458l8.365-49.9a9.082,9.082,0,0,1,10.459-7.455l49.9,8.365a9.084,9.084,0,0,1,7.456,10.459l-8.366,49.9A9.081,9.081,0,0,1-453.78,1226.8Z" transform="translate(552.107 -1119.416)" fill="#ccc"/>
            <path id="Path_11299" data-name="Path 11299" d="M-223.72,1215l-48.742,13.567a9.082,9.082,0,0,1-11.185-6.314l-13.567-48.742a9.083,9.083,0,0,1,6.314-11.185l48.743-13.567a9.082,9.082,0,0,1,11.185,6.314l13.567,48.742A9.083,9.083,0,0,1-223.72,1215Z" transform="translate(547.05 -1119.367)" fill="#ccc"/>
            <path id="Rectangle_1110" data-name="Rectangle 1110" d="M20.177,0h329.5a20.177,20.177,0,0,1,20.177,20.177V39.725a7.793,7.793,0,0,1-7.793,7.793H7.793A7.793,7.793,0,0,1,0,39.725V20.177A20.177,20.177,0,0,1,20.177,0Z" transform="translate(0 99.372)" fill="#d8d8d8"/>
          </g>
          <g id="Group_2136" data-name="Group 2136" transform="translate(141.636 100.789)">
            <g id="Group_2135" data-name="Group 2135">
              <path id="Path_11300" data-name="Path 11300" d="M-345.909,1112.114H-397.83c-7.734,0-22.387,15.377-22.387,15.377l-8.9-20.455-5.068-11.617c5.682-1.651,14.109.136,20.153,2.47s11.686,0,27.63,0,30.794,6.737,36.564,6.6A6.3,6.3,0,0,0-345.909,1112.114Z" transform="translate(434.19 -1094.776)" fill="#fff"/>
              <path id="Path_11301" data-name="Path 11301" d="M-327.068,1110.321c-.654,1.182-2.988.772-2.988.772a5.071,5.071,0,0,1-2.831,1.142,4.668,4.668,0,0,1-.819,0h-10.165a6.3,6.3,0,0,1-3.934-7.625c5.769-.138,11.208-3.905,13.209-4.521s1.963.371,3.067,1.805,3.476,3.144,4.295,4.3.166,1.875.166,1.875A2.349,2.349,0,0,1-327.068,1110.321Z" transform="translate(432.151 -1094.897)" fill="#ffc7c8"/>
              <path id="Path_11302" data-name="Path 11302" d="M-329.85,1111.34a5.071,5.071,0,0,1-2.831,1.142h-6.649c2.774,0,4.229-2.5,5.956-2.089A8.335,8.335,0,0,0-329.85,1111.34Z" transform="translate(431.945 -1095.144)" fill="#fbb1b2"/>
              <path id="Path_11303" data-name="Path 11303" d="M-336.816,1106.163h5.55a16.71,16.71,0,0,0-2.5-2.667C-334.632,1102.951-336.816,1106.163-336.816,1106.163Z" transform="translate(431.886 -1094.981)" fill="#fbb1b2"/>
            </g>
            <path id="Path_11304" data-name="Path 11304" d="M-345.787,1112.3h-51.921c-7.734,0-22.387,15.377-22.387,15.377l-8.9-20.455,7.878-4.569c3.407,3.487,10.74,7.509,17.8,7.509S-348.91,1112.3-345.787,1112.3Z" transform="translate(434.067 -1094.962)" fill="#e6ebee"/>
          </g>
          <g id="Group_2145" data-name="Group 2145" transform="translate(147.494 76.711)">
            <g id="Group_2137" data-name="Group 2137" transform="translate(73.637 115.88)">
              <path id="Path_11305" data-name="Path 11305" d="M-207.978,1223.533a5.838,5.838,0,0,1-1.59.156c-.371-.011-.781-.029-1.22-.068-5.38-.518-14.889-3.613-19.186-3.613h-8.436l-2.137-3.251c-2.324-3.544-5.067-7.733-6.952-10.652,5.624,1.436,9.861,2.569,11.422,2.569,5.155,0,3.36-4.062,8.554-6.17s4.149,4.032,10.749,2.226S-204.13,1222.479-207.978,1223.533Z" transform="translate(350.277 -1189.117)" fill="#ffc7c8"/>
              <path id="Path_11306" data-name="Path 11306" d="M-295.413,1201.213c-17.043,5.286-20.4,2.252-20.4,2.252l-8.017-9.907-17.6-4.755-11.344,15.61c3.81,2.051,7.978,5.654,10.029,9.659s8.709,5.622,13.816,5.622H-240.9c-2.54-3.856-6.581-10-9.1-13.9C-263.026,1202.473-283.507,1197.52-295.413,1201.213Z" transform="translate(352.768 -1188.804)" fill="#fff"/>
              <path id="Path_11307" data-name="Path 11307" d="M-210.62,1223.883c-5.38-.518-14.889-3.613-19.186-3.613h-8.436l-2.137-3.251c4.022,0,6.941.391,9.773-.976s8.7-3.065,11.246-2.909,6.484,3.27,6.3,5.193C-213.218,1220.007-213.169,1223.317-210.62,1223.883Z" transform="translate(350.109 -1189.379)" fill="#fbb1b2"/>
              <path id="Path_11308" data-name="Path 11308" d="M-240.981,1216.757c-2.468,0-19.681-13.678-19.681-13.678l-5.142-1.023,11.938,17.952h15.023Z" transform="translate(350.71 -1189.117)" fill="#e6ebee"/>
            </g>
            <path id="Path_11309" data-name="Path 11309" d="M-340.563,1208.093s6.148-13.552,20.318-10.955l-6.876-19.717s-11.243,19.306-12.366,20.456S-340.563,1208.093-340.563,1208.093Z" transform="translate(426.117 -1072.654)" fill="#e6ebee"/>
            <g id="Group_2142" data-name="Group 2142" transform="translate(0 29.699)">
              <g id="Group_2138" data-name="Group 2138" transform="translate(0 9.977)">
                <path id="Path_11310" data-name="Path 11310" d="M-399.73,1148.127s-4.031-1.308-5.525.605-8.943,17.556-8.69,20.552c.117,1.358.128,3.828.108,6.152-.03,2.812-.108,5.409-.108,5.614,0,.381-14.245,0-14.245,0V1166.3c0-3.554.635-1.787,6.1-22.231s10.819-31.849,16.071-33.314l3.008,17.878Z" transform="translate(428.19 -1110.753)" fill="#e77817"/>
                <path id="Path_11311" data-name="Path 11311" d="M-399.483,1148.56s-4.031-1.308-5.525.605-8.943,17.556-8.69,20.552c.117,1.358.128,3.828.108,6.152a1.979,1.979,0,0,1-.128-.753c0-3.182-3.67-7.635-4.052-7.635s11.707-32.823,11.531-38.418h3.476Z" transform="translate(427.944 -1111.186)" fill="#d66613"/>
              </g>
              <g id="Group_2139" data-name="Group 2139" transform="translate(19.613)">
                <path id="Path_11312" data-name="Path 11312" d="M-307.625,1156.029a23.948,23.948,0,0,0-19.789,12.829c-.548,1.005-1.064,2.088-1.563,3.241-5.964,13.522-10.2,35.547-36.563,30.481,0,0-27.67-38.3-35.187-58.278-1.641-4.355-2.979-8.25-4.052-11.686,0-.01-.01-.03-.01-.04-3.818-12.312-4.131-18.94-1.982-21.078,3.944-3.954,12.1-2.568,19.6-2.207s21.08-7.254,28.6-8.484,10.809,1.523,12.088,10.691c.264,1.836.615,4.158,1.015,6.736,1.611,10.3,3.866,24.673,2.84,27.894-.858,2.695,12.087,4.9,22.75,6.943C-314.566,1154.076-309.822,1155.053-307.625,1156.029Z" transform="translate(408.102 -1100.534)" fill="#e77817"/>
                <path id="Path_11313" data-name="Path 11313" d="M-318.532,1153.459l-7.586,6.834s-19.332-7.977-16.92-12.313-6.61-23.656-8.232-31.027l7.148,1.668c1.611,10.3,3.866,24.673,2.84,27.894C-342.14,1149.211-329.195,1151.419-318.532,1153.459Z" transform="translate(406.757 -1100.922)" fill="#e77817"/>
                <path id="Path_11314" data-name="Path 11314" d="M-328.9,1172.877c-5.964,13.522-10.2,35.547-36.563,30.481,0,0-27.67-38.3-35.187-58.278-1.641-4.355-2.979-8.25-4.052-11.686,3.68,10.661,14.206,25.188,20.689,30.452,6.5,5.271,14.264,12.77,23.3,13.8C-353.295,1178.472-337.782,1177.007-328.9,1172.877Z" transform="translate(408.021 -1101.311)" fill="#d66613"/>
              </g>
              <g id="Group_2141" data-name="Group 2141" transform="translate(72.845 0.272)">
                <path id="Path_11315" data-name="Path 11315" d="M-301.893,1159.912l-7.244-2.167-10.574-3.173s-13.394-18.531-22.641-24.2a15.913,15.913,0,0,1-4.588-4.677c0-.01-.011-.021-.02-.029-6.1-8.982-8.651-25.043-4.784-24.848,5.35.273,13.883,7.019,18.287,12.156s21.44,23.637,28.4,28.587S-299.138,1154.6-301.893,1159.912Z" transform="translate(353.579 -1100.812)" fill="#e77817"/>
                <path id="Path_11316" data-name="Path 11316" d="M-308.311,1144.551l-.665,13.8-10.574-3.173s-13.394-18.531-22.641-24.2a15.914,15.914,0,0,1-4.588-4.677c3.26,4.111,7.165,2.968,12.623,7.284,5.478,4.325,12.986,13.229,14.665,13.356S-315.322,1142.227-308.311,1144.551Z" transform="translate(353.418 -1101.415)" fill="#d66613"/>
                <g id="Group_2140" data-name="Group 2140" transform="translate(8.151 43.021)">
                  <path id="Path_11317" data-name="Path 11317" d="M-314.211,1165.647c-.118.019-2.129.419-2.187.428-2.617.41-7.518,4.354-7.518,4.354.732,2.929-2.568,8.8-4.032,10.623-1.181,1.483-1.338,8.318-1.357,10.885a1,1,0,0,1-1,.977.981.981,0,0,1-.917-.634,14.852,14.852,0,0,1-.771-2.334c0-.41-.273-3.885-.273-3.885v-3.749h-.742l-.615,5.917.615,3.29s.967,2.089.409,2.459-2.079,1.25-3.046,0c0,0-.371,1.573-1.112,1.758s-3.193-2.452-3.476-2.968a47.157,47.157,0,0,1-1.015-4.667l.976-7.548-1.572,6.855s1.611,8.836-.372,8.836-2.177-2.451-2.547-3.378-.273-4.717-.459-5.829,1.894-9.491,2.265-10.223,8.279-8.748,10.133-11.482c.968-1.434,3.339-3.5,5.741-5.759,7.362-1.572,11.092,1.718,12.459,4.882.048.116.1.233.137.35A6.087,6.087,0,0,1-314.211,1165.647Z" transform="translate(345.231 -1145.214)" fill="#ffc7c8"/>
                  <path id="Path_11318" data-name="Path 11318" d="M-313.713,1165.775c-.118.019-2.129.419-2.187.429-2.617.41-7.518,4.354-7.518,4.354-1.972-2.43.087-3.533,2.977-4.081a45.316,45.316,0,0,0,6.318-1.893c.048.116.1.233.137.35A6.091,6.091,0,0,1-313.713,1165.775Z" transform="translate(344.733 -1145.342)" fill="#fbb1b2"/>
                  <path id="Path_11319" data-name="Path 11319" d="M-300,1154.237v.01a16.373,16.373,0,0,1-1.259,6.708c-.654,1.444-8.308,3.447-12.516,4.354a7.808,7.808,0,0,0-.41-1.181v-.01c-1.367-3.163-5.1-6.454-12.459-4.882a34.712,34.712,0,0,0,5.594-6.258c2.608-4.287,7.88-10.056,15.348-7.449,4.11,1.435,5.516,4.91,5.693,8.327C-300,1153.982-300,1154.11-300,1154.237Z" transform="translate(344.791 -1144.876)" fill="#e77817"/>
                  <path id="Path_11320" data-name="Path 11320" d="M-299.694,1154.474a16.373,16.373,0,0,1-1.259,6.708c-.654,1.444-8.308,3.446-12.516,4.354a7.807,7.807,0,0,0-.41-1.181v-.01c5.057-1.475,10.535-4.15,11.042-6.816C-302.368,1155.059-299.86,1155.938-299.694,1154.474Z" transform="translate(344.489 -1145.103)" fill="#d66613"/>
                </g>
              </g>
            </g>
            <path id="Path_11321" data-name="Path 11321" d="M-391.35,1109.071c0,4.581-1.833,7.8,11.545,17.829l5.737-17.829-2.813-2.566Z" transform="translate(427.32 -1070.976)" fill="#fbb1b2"/>
            <g id="Group_2143" data-name="Group 2143" transform="translate(27.77)">
              <path id="Path_11322" data-name="Path 11322" d="M-395.526,1098.27c-2.053,0-6.775-9.342-2.463-8.11S-395.526,1098.27-395.526,1098.27Z" transform="translate(399.747 -1070.587)" fill="#fbb1b2"/>
              <path id="Path_11323" data-name="Path 11323" d="M-388.257,1086.8s-5.543-.514-7.185,2.773-1.335,22.891,9.547,24.533,12.729-17.554,11.29-23.4C-374.6,1090.7-385.69,1092.033-388.257,1086.8Z" transform="translate(399.663 -1070.509)" fill="#ffc7c8"/>
              <path id="Path_11324" data-name="Path 11324" d="M-368.142,1107.436v-21.061c0-8.927-6.1-17.132-16.168-16.185-8.492.8-13.447,8.008-13.961,12.113s-.513,8.109.514,9.546c.946,1.325-.2,2.3,1.544,3.892-.111-3.1.21-5.654.715-6.663,1.642-3.285,7.185-2.773,7.185-2.773,2.567,5.236,13.652,3.9,13.652,3.9a53.037,53.037,0,0,1,.069,9.483c-4.14,3.94-1.814,9.7-1.814,9.7s-.821,1.855-4.208,5.55,0,8.725,0,8.725c-1.951,2.157-4.723,11.907,0,18.477a16.229,16.229,0,0,0,12.473,6.466Z" transform="translate(399.72 -1070.115)" fill="#363636"/>
            </g>
            <g id="Group_2144" data-name="Group 2144" transform="translate(98.737 84.449)">
              <path id="Path_11325" data-name="Path 11325" d="M-291.785,1188.853a10.813,10.813,0,0,1-1.953,3.944c-5.925,7.762-21.733,10.222-25.287,7.654-4.091-2.959-8.035-20.856-8.035-27.025,0-6.1,11.541-19.86,21.011-16.208.118.039.225.088.342.138C-295.065,1161.964-289.031,1178.025-291.785,1188.853Z" transform="translate(327.06 -1156.611)" fill="#fff"/>
              <path id="Path_11326" data-name="Path 11326" d="M-291.335,1188.867a10.813,10.813,0,0,1-1.953,3.944l-10.134-6.756c6.318-4.765,4.814-22.31-4.638-26.976,0,0,.957-.722,2.46-1.846.118.039.225.088.342.138C-294.616,1161.979-288.581,1178.04-291.335,1188.867Z" transform="translate(326.61 -1156.626)" fill="#e6ebee"/>
              <path id="Path_11327" data-name="Path 11327" d="M-219.652,1257.571c.283,5.224-12.37,14.021-14.84,12.644S-237.518,1254-237.518,1254s-4.394-10.995-10.173-16.491a35.694,35.694,0,0,0-5.067-3.631l7.78-12.684c5.039,5.634,8.749,8.925,12.137,9.052,4.394.156,8.8,2.586,9.616,10.1a44.235,44.235,0,0,0,.762,4.646c.01.039.021.078.03.117.185.87.39,1.7.605,2.49C-220.873,1251.264-219.827,1254.271-219.652,1257.571Z" transform="translate(325.302 -1158.139)" fill="#ffc7c8"/>
              <path id="Path_11328" data-name="Path 11328" d="M-246.58,1220.369l-7.78,12.684c-11.96-7.519-38.438-20.747-41.661-21.666-3.847-1.093-19.077-6.141-22.846-10.231a4.906,4.906,0,0,1-1.3-5.2c1.933-5.478,13.561-11.075,16.451-9.207,3.457,2.233,3.29.732,16.764,3.632s27.768,15.241,35.462,24.311C-249.713,1216.786-248.093,1218.67-246.58,1220.369Z" transform="translate(326.904 -1157.316)" fill="#fff"/>
              <path id="Path_11329" data-name="Path 11329" d="M-221.981,1245.215c-2.1-7.781-4.9-9.92-10.378-14.751,4.394.156,8.8,2.586,9.616,10.1A44.226,44.226,0,0,0-221.981,1245.215Z" transform="translate(324.819 -1158.359)" fill="#fbb1b2"/>
              <path id="Path_11330" data-name="Path 11330" d="M-254.487,1232.984c-7.323-6.1-23.793-20.015-32.864-23.188s-13.405-10.975-19.712-9.8c-3.806.7-8.893.074-11.49-1.339a3.215,3.215,0,0,1-1.343-1.374l-.4-1.4c-3.3-3.834-5.494-12.4-5.494-12.4s2.77,14.9,7.041,17.853l0-.008c4.132,4.045,18.831,8.915,22.6,9.986C-292.925,1212.237-266.447,1225.466-254.487,1232.984Z" transform="translate(327.03 -1157.247)" fill="#e6ebee"/>
            </g>
          </g>
          <g id="Group_2157" data-name="Group 2157" transform="translate(75.813 63.592)">
            <g id="Group_2146" data-name="Group 2146" transform="translate(89.794 120.506)">
              <path id="Path_11331" data-name="Path 11331" d="M-368.575,1181.442l-.322.518-7.722,12.243-20.777,6.805-11.98-8.387s-1.464-7.636,2.53-6.533c1.914.527,7.234-.4,12.584-1.639,5.83-1.338,11.707-3.028,13.289-3.583C-377.937,1179.8-375.34,1179.733-368.575,1181.442Z" transform="translate(409.638 -1180.105)" fill="#d66613"/>
              <path id="Path_11332" data-name="Path 11332" d="M-368.2,1181.442l-.322.518c-3.631-.216-7.43-.029-9.6,1.279-3.554,2.148-9.968,2.421-15.769,1.211,5.83-1.338,11.707-3.028,13.289-3.583C-377.565,1179.8-374.968,1179.733-368.2,1181.442Z" transform="translate(409.266 -1180.105)" fill="#e77817"/>
            </g>
            <g id="Group_2147" data-name="Group 2147" transform="translate(60.112 121.294)">
              <path id="Path_11333" data-name="Path 11333" d="M-360.643,1198.36a8.437,8.437,0,0,1-1.054,2.735c0,.01-.011.01-.011.019-4.646,8.065-22.055,17.028-27.483,19.741-3.993,1.992-24.79,8.964-38.518,13.494-.985-5.672-6.97-10.027-12.331-11.316,5.771-4.131,12.409-9.169,16.451-12.565,3.466-2.911,7.225-6.971,12.7-10.535a47.969,47.969,0,0,1,21.041-7.411,34.553,34.553,0,0,0,7.351-5.907c3.037-3.4,6.063-7.128,13.2-5.155S-359.13,1189.711-360.643,1198.36Z" transform="translate(440.04 -1180.912)" fill="#e77817"/>
              <path id="Path_11334" data-name="Path 11334" d="M-361.678,1201.506a.186.186,0,0,1-.02.05c0,.01-.011.01-.011.019-4.646,8.065-22.055,17.028-27.483,19.741-3.993,1.992-24.79,8.964-38.518,13.494-.985-5.672-6.97-10.027-12.331-11.316,5.771-4.131,12.409-9.169,16.451-12.565,3.466-2.911,7.225-6.971,12.7-10.535l12.771,1.094c.128,15.162,14.421,12.389,20.669,9.06S-364.227,1206.037-361.678,1201.506Z" transform="translate(440.04 -1181.373)" fill="#d66613"/>
            </g>
            <path id="Path_11335" data-name="Path 11335" d="M-440.856,1240.415a132.944,132.944,0,0,1,12.922-5.048c-.983-5.671-6.972-10.029-12.332-11.31-3.8,2.72-7.227,5.052-9.287,6.254Z" transform="translate(500.377 -1060.639)" fill="#fbb1b2"/>
            <g id="Group_2151" data-name="Group 2151" transform="translate(0 33.327)">
              <path id="Path_11336" data-name="Path 11336" d="M-431.021,1156.043a102.715,102.715,0,0,0-3.642,12.721c-1.24,5.478-1.883,9.755-1.883,9.755H-472.2c-18.8,0-24.057,20.376-24.057,20.376s-8.016-37.043-4.424-64.409c1.495-11.414,5.517-18.893,11.16-24.468l.021-.009c7.878-7.792,18.912-11.843,30.628-17.692a38.671,38.671,0,0,1,30.345,3.876C-410.468,1107.168-427.427,1146.368-431.021,1156.043Z" transform="translate(501.608 -1090.813)" fill="#fff"/>
              <path id="Path_11337" data-name="Path 11337" d="M-434.662,1169.229c-1.24,5.478-1.883,9.755-1.883,9.755H-472.2c-18.8,0-24.057,20.376-24.057,20.376s-8.016-37.043-4.424-64.409c1.495-11.414,5.517-18.893,11.16-24.468l.021-.009,26.585,19.234c-1.454,15.972-1.854,24.37,0,26.8C-461.346,1158.567-444.572,1167.307-434.662,1169.229Z" transform="translate(501.608 -1091.278)" fill="#e6ebee"/>
              <g id="Group_2150" data-name="Group 2150" transform="translate(5.724 14.512)">
                <g id="Group_2148" data-name="Group 2148" transform="translate(58.028 65.314)">
                  <path id="Path_11338" data-name="Path 11338" d="M-394.512,1182.308l-1.26.459-.009.009-.782.284a6.46,6.46,0,0,1-2.918-2.607l-2.491-1.4-4.765-.753.011.01,3.4,4.4a.852.852,0,0,1,.126.816,2.322,2.322,0,0,1-2.456,1.805s-1.19,3.465-3.134,2.06c0,0,.43,1.942-1.512,1.836s-3.251-2.812-4.326-2.812-12.771-2.7-20.991-4.326c-.194-.039-.41-.078-.634-.117a8.552,8.552,0,0,1,3.085-7.956c1.756.341,2.851.5,2.851.5s16.011-1.622,17.846-1.944l10.5,1.944,6.115,4.513a1.8,1.8,0,0,1,.656.938Z" transform="translate(436.311 -1172.573)" fill="#ffc7c8"/>
                  <path id="Path_11339" data-name="Path 11339" d="M-395.074,1182.866l-.009.009-.782.284a6.46,6.46,0,0,1-2.918-2.607l-2.491-1.4-4.764-.753c-1.094-1.26-1.094-1.875.753-1.542s3.924.41,4.394.722,2.459,2.061,2.841,2.255S-396.333,1183.334-395.074,1182.866Z" transform="translate(435.612 -1172.672)" fill="#fbb1b2"/>
                  <path id="Path_11340" data-name="Path 11340" d="M-414.624,1186.646c-1.083,0-12.77-2.7-20.991-4.326-.194-.039-.41-.078-.634-.117C-428.1,1182.428-418.948,1183.834-414.624,1186.646Z" transform="translate(436.31 -1172.801)" fill="#fbb1b2"/>
                </g>
                <g id="Group_2149" data-name="Group 2149">
                  <path id="Path_11341" data-name="Path 11341" d="M-437.657,1180.392a76.1,76.1,0,0,0-9.441-.576c-12.048-.224-29.573.332-36.115-1.582,0,0-4.092.762-6.151-1.727a20.105,20.105,0,0,1-1.69-4.912c-2.685-10.114-6.736-33.38-3.485-49.353l.028-.127c.976-4.755,2.618-8.856,5.146-11.755,6.941-7.977,26.42-6.766,26.975,11.481a48.8,48.8,0,0,1-.391,7.753c-1.835,14.372-9.207,25.042-8.738,29.29,0,0,10.262.849,18.053,6.483,5.605,4.041,14.4,6.189,18.893,7.069A8.552,8.552,0,0,0-437.657,1180.392Z" transform="translate(495.746 -1105.676)" fill="#fff"/>
                  <path id="Path_11342" data-name="Path 11342" d="M-462.38,1130.094v.078c-1.835,14.372-9.207,25.042-8.738,29.29a33,33,0,0,0-7.752,1.113s.2-3.3,3.877-6.6S-463.746,1139.887-462.38,1130.094Z" transform="translate(495.347 -1106.254)" fill="#e6ebee"/>
                  <path id="Path_11343" data-name="Path 11343" d="M-446.794,1181.529c-12.048-.224-29.573.332-36.115-1.582,7.245-.416,13.844-2.43,19.34-1.737C-460.814,1178.552-453.453,1180.085-446.794,1181.529Z" transform="translate(495.442 -1107.389)" fill="#e6ebee"/>
                </g>
              </g>
            </g>
            <g id="Group_2153" data-name="Group 2153" transform="translate(42.734)">
              <g id="Group_2152" data-name="Group 2152" transform="translate(0 24.315)">
                <path id="Path_11344" data-name="Path 11344" d="M-434.75,1104.743a14.729,14.729,0,0,0-4.306,5.632,2.787,2.787,0,0,1-3.359,1.562,18.491,18.491,0,0,1-8.269-5.242.781.781,0,0,1-.078-.088c-5.614-6.074-7.078-14.509-7.078-14.509l3.1-1.59,4.071-8.925,5.476,4.687Z" transform="translate(457.839 -1081.583)" fill="#ffc7c8"/>
                <path id="Path_11345" data-name="Path 11345" d="M-434.75,1104.743a14.729,14.729,0,0,0-4.306,5.632c-1.717-6.961-9.119-22.172-13.122-17.124-2.763,3.476.4,12.067,1.417,13.356-5.614-6.074-7.078-14.509-7.078-14.509l3.1-1.59,4.071-8.925,5.476,4.687Z" transform="translate(457.839 -1081.583)" fill="#fbb1b2"/>
              </g>
              <path id="Path_11346" data-name="Path 11346" d="M-446.313,1061.609a4.78,4.78,0,0,1,4.843-4.592c1.305.053,2.551.636,3.858.632,3.128-.011,7.176-5,18.214,7.738,5.55,6.4,1.579,11.936-2.782,12.762-3.537.67-6.16-1.233-10.495,4.228-9.8,12.342-11.975,3.175-14.674.656-1.224-1.142-3.184-1.08-3.941-2.622C-453.648,1075.606-453.188,1056.037-446.313,1061.609Z" transform="translate(457.715 -1056.678)" fill="#363636"/>
              <path id="Path_11347" data-name="Path 11347" d="M-443.974,1082.67c-.731-3.9-2.924-7.452-5.969-6.269s-1.341,11.119,4.264,11.356c0,0-.122,7.1,3.9,12.419s10.6,9.7,16.935-2.366,5.848-20.345,5.239-24.13c0,0-3.839,8.161-15.747-3.431a5.217,5.217,0,0,0-3.137,5.916c.853,4.376-.121,2.72-2.071,3.548s-1.828,6.861-1.828,6.861h0a2.983,2.983,0,0,1-1.527-2.47Z" transform="translate(457.688 -1057)" fill="#ffc7c8"/>
            </g>
            <g id="Group_2154" data-name="Group 2154" transform="translate(96.574 115.469)">
              <path id="Path_11348" data-name="Path 11348" d="M-402.367,1185.389l29.752-10.419a.621.621,0,0,1,.728.467h0a1.877,1.877,0,0,1-.844,2.475l-27.716,9.71a1.878,1.878,0,0,1-2.2-1.413h0A.621.621,0,0,1-402.367,1185.389Z" transform="translate(402.694 -1174.946)" fill="#212121"/>
              <path id="Path_11349" data-name="Path 11349" d="M-383.991,1179.835a1.891,1.891,0,0,0,2.148,1.423l9.554-3.347a1.877,1.877,0,0,0,.844-2.475.624.624,0,0,0-.708-.469l-11.559,4.047A.623.623,0,0,0-383.991,1179.835Z" transform="translate(402.253 -1174.945)" fill="#363636"/>
            </g>
            <g id="Group_2155" data-name="Group 2155" transform="translate(4.893 118.66)">
              <path id="Path_11350" data-name="Path 11350" d="M-416.471,1211.409c-7.167,4.569-14.128,8.034-14.128,8.034h-53.22c-10.086,0-14.246-11.628-12.321-18.481a29.342,29.342,0,0,1,5.2-10.487c0-.009.009-.009.009-.019,7.869-9.89,21.676-12.243,37.306-12.243,23.618,0,48.75,8.073,52.273,16.489C-399.454,1199.244-408.1,1206.079-416.471,1211.409Z" transform="translate(496.597 -1178.214)" fill="#e77817"/>
              <path id="Path_11351" data-name="Path 11351" d="M-416.471,1211.707c-7.167,4.569-14.128,8.034-14.128,8.034h-53.22c-10.086,0-14.246-11.628-12.321-18.481a29.342,29.342,0,0,1,5.2-10.487c-5.614,8.836,37.179,10.487,51.541,11.306,11.716.664,17.34-.029,19.937-2.187Z" transform="translate(496.597 -1178.511)" fill="#d66613"/>
              <path id="Path_11352" data-name="Path 11352" d="M-403.656,1218.378s-12.252,31.047-21.508,52.6l-3.916-.792-9.314-1.893-5.115-1.036c.41-1.483.791-2.948,1.112-4.373a51.039,51.039,0,0,0,1.514-10.926c0-5.77-.216-15.318,1.523-24.378l.01-.01c1.621-8.437,4.93-16.452,11.7-20.65,14.051-8.719,19.956-20.1,25-15.3C-397.455,1196.585-395.328,1207.56-403.656,1218.378Z" transform="translate(495.341 -1178.504)" fill="#e77817"/>
              <path id="Path_11353" data-name="Path 11353" d="M-406.386,1311.839h-51.081a1.969,1.969,0,0,1-1.963-1.846,23.21,23.21,0,0,1,4.443-14.693c3.886-5.624,8.347-16.285,11.1-26.186l5.106.987,9.362,1.815c-.009.039-.028.088-.039.127-5.5,17.291-2.929,18.737-2.929,18.737s8.72,9.842,14.528,12.428c4.834,2.148,11.121,2.169,13.1,5.879A1.868,1.868,0,0,1-406.386,1311.839Z" transform="translate(495.719 -1180.365)" fill="#ffc7c8"/>
              <path id="Path_11354" data-name="Path 11354" d="M-444.971,1293.844c-.809,5-14.46,6.141-14.46,16.149a23.21,23.21,0,0,1,4.443-14.693c3.886-5.624,8.347-16.285,11.1-26.186l5.129.991S-444.17,1288.836-444.971,1293.844Z" transform="translate(495.719 -1180.365)" fill="#fbb1b2"/>
              <path id="Path_11355" data-name="Path 11355" d="M-438.38,1269.142l-5.129-.991c.41-1.483.791-2.948,1.112-4.373a51.04,51.04,0,0,0,1.514-10.926c0-5.77-.216-15.318,1.523-24.378l.01-.01C-440.824,1238.881-436.33,1262.308-438.38,1269.142Z" transform="translate(495.341 -1179.403)" fill="#d66613"/>
            </g>
            <g id="Group_2156" data-name="Group 2156" transform="translate(31.196 169.672)">
              <path id="Path_11356" data-name="Path 11356" d="M-450.029,1230.463c-5.191,3.028-10.543.432-17.249,5.839s2.54,15.575,6,17.521,9.085,15.14,12.33,19.251,9.934-3.84,9.934-3.84,3.906,2.217,4.507-1.036c.442-2.4-3.2-5.923-4.714-8.087s-2.112-13.7-2.112-19.545Z" transform="translate(469.656 -1230.463)" fill="#fbb1b2"/>
            </g>
          </g>
        </g>
      </g>
      <path id="Path_11357" data-name="Path 11357" d="M-434.456,1082.773a4.207,4.207,0,0,1,2.3,0" transform="translate(575.833 -971.926)" fill="none" stroke="#3e5359" stroke-miterlimit="10" stroke-width="0.638"/>
      <path id="Path_11358" data-name="Path 11358" d="M-424.873,1082.6a1.881,1.881,0,0,1,1.817.426" transform="translate(575.606 -971.924)" fill="none" stroke="#3e5359" stroke-miterlimit="10" stroke-width="0.638"/>
      <path id="Path_11359" data-name="Path 11359" d="M-429.292,1086.783s.467,3.356.234,3.684-1.446-.625-1.446-.625" transform="translate(575.739 -972.024)" fill="none" stroke="#967570" stroke-miterlimit="10" stroke-width="0.432"/>
      <path id="Path_11360" data-name="Path 11360" d="M-433.662,1095.114l5.194.235s-.389,2.167-2.337,2.135S-433.662,1095.114-433.662,1095.114Z" transform="translate(575.814 -972.222)" fill="#fff"/>
      <path id="Path_11361" data-name="Path 11361" d="M-432.669,1084.639c0,.545-.266.986-.6.986s-.6-.441-.6-.986.267-.987.6-.987S-432.669,1084.093-432.669,1084.639Z" transform="translate(575.819 -971.95)" fill="#3e5359"/>
      <path id="Path_11362" data-name="Path 11362" d="M-423.759,1084.639c0,.545-.267.986-.6.986s-.6-.441-.6-.986.268-.987.6-.987S-423.759,1084.093-423.759,1084.639Z" transform="translate(575.608 -971.95)" fill="#3e5359"/>
      <path id="Path_11363" data-name="Path 11363" d="M-392.456,1094.773a4.206,4.206,0,0,1,2.3,0" transform="translate(574.839 -972.209)" fill="none" stroke="#3e5359" stroke-miterlimit="10" stroke-width="0.638"/>
      <path id="Path_11364" data-name="Path 11364" d="M-381.873,1095.6a1.881,1.881,0,0,1,1.817.426" transform="translate(574.589 -972.231)" fill="none" stroke="#3e5359" stroke-miterlimit="10" stroke-width="0.638"/>
      <path id="Path_11365" data-name="Path 11365" d="M-390.669,1096.639c0,.545-.267.986-.6.986s-.6-.441-.6-.986.267-.987.6-.987S-390.669,1096.093-390.669,1096.639Z" transform="translate(574.825 -972.234)" fill="#3e5359"/>
      <path id="Path_11366" data-name="Path 11366" d="M-380.759,1097.639c0,.545-.267.986-.6.986s-.6-.441-.6-.986.268-.987.6-.987S-380.759,1097.093-380.759,1097.639Z" transform="translate(574.591 -972.258)" fill="#3e5359"/>
      <path id="Path_11367" data-name="Path 11367" d="M-387.047,1099.452s-.467,3.356-.233,3.684,1.446-.625,1.446-.625" transform="translate(574.718 -972.324)" fill="none" stroke="#967570" stroke-miterlimit="10" stroke-width="0.432"/>
      <path id="Path_11368" data-name="Path 11368" d="M-384.309,1106.783l-5.193.235s.388,2.167,2.337,2.135S-384.309,1106.783-384.309,1106.783Z" transform="translate(574.769 -972.498)" fill="#fff"/>
    </g>
  </g>
</svg>
