<svg xmlns="http://www.w3.org/2000/svg" width="25" height="25"><path d="M12.504 0c-3.34 0-6.48 1.3-8.84 3.66A12.421 12.421 0 000 12.5c0 3.34 1.3 6.48 3.662 8.84C6.02 23.7 9.162 25 12.502 25s6.479-1.3 8.841-3.662c4.876-4.873 4.876-12.804 0-17.678A12.42 12.42 0 0012.503 0zm-.002 2.123h.002c2.773 0 5.38 1.08 7.338 3.038 4.046 4.046 4.046 10.63 0 14.676a10.322 10.322 0 01-7.343 3.04 10.31 10.31 0 01-7.338-3.038 10.315 10.315 0 01-3.04-7.339c0-2.773 1.08-5.379 3.042-7.34a10.316 10.316 0 017.339-3.037zm.05 4.445c-.821 0-1.541.17-2.157.507-.616.337-1.084.762-1.406 1.276-.321.513-.483 1.02-.483 1.52 0 .243.1.468.303.676.203.208.452.312.746.312.5 0 .84-.297 1.02-.893.188-.569.421-1 .695-1.292.274-.291.7-.438 1.28-.438.495 0 .9.145 1.213.434.313.29.47.645.47 1.067 0 .215-.05.416-.155.6a2.17 2.17 0 01-.379.502c-.15.15-.393.372-.73.667-.384.337-.69.628-.917.873a2.92 2.92 0 00-.545.853c-.137.325-.205.707-.205 1.15 0 .353.093.619.28.798a.96.96 0 00.692.269c.527 0 .84-.274.94-.822.058-.258.102-.438.13-.541.03-.103.07-.206.123-.31.052-.102.133-.215.24-.339a5.45 5.45 0 01.432-.43c.647-.58 1.098-.992 1.348-1.237a3.63 3.63 0 00.647-.873c.182-.336.271-.73.271-1.177a2.82 2.82 0 00-.476-1.58c-.319-.485-.771-.868-1.356-1.15-.583-.28-1.258-.422-2.022-.422zm-.188 9.6c-.34 0-.623.112-.855.34a1.123 1.123 0 00-.348.837c0 .374.12.665.36.873.24.208.52.312.843.312.308 0 .583-.106.82-.316.237-.21.355-.5.355-.87 0-.332-.112-.61-.338-.837a1.138 1.138 0 00-.837-.34z"/></svg>