<?xml version="1.0" encoding="UTF-8"?>
<svg xmlns="http://www.w3.org/2000/svg" xmlns:xlink="http://www.w3.org/1999/xlink" width="16pt" height="16pt" viewBox="0 0 16 16" version="1.1">
<g id="surface1">
<path style=" stroke:none;fill-rule:nonzero;fill:rgb(98.431373%,88.627451%,79.607843%);fill-opacity:1;" d="M 14.875 7.796875 C 14.875 4 11.796875 0.921875 8 0.921875 C 4.203125 0.921875 1.125 4 1.125 7.796875 C 1.125 10.148438 2.304688 12.21875 4.101562 13.460938 L 11.898438 13.460938 C 13.695312 12.21875 14.875 10.148438 14.875 7.796875 Z M 14.875 7.796875 "/>
<path style="fill:none;stroke-width:1.5;stroke-linecap:round;stroke-linejoin:miter;stroke:rgb(17.647059%,20.392157%,41.568627%);stroke-opacity:1;stroke-miterlimit:10;" d="M 14.203125 53.84375 L 49.796875 53.84375 " transform="matrix(0.25,0,0,0.25,0,0)"/>
<path style="fill:none;stroke-width:1.5;stroke-linecap:round;stroke-linejoin:round;stroke:rgb(76.470588%,80%,91.372549%);stroke-opacity:1;stroke-miterlimit:10;" d="M 20.375 57.078125 L 43.625 57.078125 " transform="matrix(0.25,0,0,0.25,0,0)"/>
<path style="fill:none;stroke-width:1.5;stroke-linecap:round;stroke-linejoin:round;stroke:rgb(76.470588%,80%,91.372549%);stroke-opacity:1;stroke-miterlimit:10;" d="M 27.640625 60.3125 L 32.3125 60.3125 " transform="matrix(0.25,0,0,0.25,0,0)"/>
<path style="fill:none;stroke-width:1.5;stroke-linecap:round;stroke-linejoin:round;stroke:rgb(76.470588%,80%,91.372549%);stroke-opacity:1;stroke-miterlimit:10;" d="M 35.171875 60.3125 L 36.421875 60.3125 " transform="matrix(0.25,0,0,0.25,0,0)"/>
<path style=" stroke:none;fill-rule:nonzero;fill:rgb(90.980392%,95.294118%,100%);fill-opacity:1;" d="M 13.257812 5.140625 C 13.257812 4.648438 12.859375 4.25 12.367188 4.25 L 3.789062 4.25 C 3.296875 4.25 2.898438 4.648438 2.898438 5.140625 L 2.898438 10.363281 C 2.898438 10.851562 3.296875 11.25 3.789062 11.25 L 12.367188 11.25 C 12.859375 11.25 13.257812 10.851562 13.257812 10.363281 Z M 13.257812 5.140625 "/>
<path style="fill:none;stroke-width:1.5;stroke-linecap:round;stroke-linejoin:round;stroke:rgb(76.470588%,80%,91.372549%);stroke-opacity:1;stroke-miterlimit:10;" d="M 44.53125 26.296875 L 45.71875 26.296875 " transform="matrix(0.25,0,0,0.25,0,0)"/>
<path style="fill:none;stroke-width:1.5;stroke-linecap:round;stroke-linejoin:round;stroke:rgb(76.470588%,80%,91.372549%);stroke-opacity:1;stroke-miterlimit:10;" d="M 30.46875 26.296875 L 41.53125 26.296875 " transform="matrix(0.25,0,0,0.25,0,0)"/>
<path style=" stroke:none;fill-rule:nonzero;fill:rgb(89.411765%,78.823529%,36.078431%);fill-opacity:1;" d="M 4.703125 6.128906 C 4.703125 5.800781 4.882812 5.515625 5.148438 5.363281 C 5.015625 5.285156 4.863281 5.238281 4.703125 5.238281 C 4.210938 5.238281 3.8125 5.636719 3.8125 6.128906 C 3.8125 6.621094 4.210938 7.015625 4.703125 7.015625 C 4.867188 7.015625 5.015625 6.96875 5.148438 6.894531 C 4.882812 6.738281 4.703125 6.457031 4.703125 6.128906 Z M 4.703125 6.128906 "/>
<path style=" stroke:none;fill-rule:nonzero;fill:rgb(76.470588%,80%,91.372549%);fill-opacity:1;" d="M 5.589844 5.238281 C 5.429688 5.238281 5.277344 5.285156 5.148438 5.363281 C 5.410156 5.515625 5.589844 5.800781 5.589844 6.128906 C 5.589844 6.457031 5.410156 6.738281 5.148438 6.894531 C 5.277344 6.96875 5.429688 7.015625 5.589844 7.015625 C 6.082031 7.015625 6.480469 6.621094 6.480469 6.128906 C 6.480469 5.636719 6.082031 5.238281 5.589844 5.238281 Z M 5.589844 5.238281 "/>
<path style=" stroke:none;fill-rule:nonzero;fill:rgb(100%,100%,100%);fill-opacity:1;" d="M 5.589844 6.128906 C 5.589844 5.800781 5.410156 5.515625 5.148438 5.363281 C 4.882812 5.515625 4.703125 5.800781 4.703125 6.128906 C 4.703125 6.457031 4.882812 6.738281 5.148438 6.894531 C 5.410156 6.738281 5.589844 6.457031 5.589844 6.128906 Z M 5.589844 6.128906 "/>
<path style=" stroke:none;fill-rule:nonzero;fill:rgb(89.411765%,78.823529%,36.078431%);fill-opacity:1;" d="M 2.902344 7.992188 L 13.257812 7.992188 L 13.257812 10.066406 L 2.902344 10.066406 Z M 2.902344 7.992188 "/>
<path style="fill:none;stroke-width:1.5;stroke-linecap:round;stroke-linejoin:round;stroke:rgb(17.647059%,20.392157%,41.568627%);stroke-opacity:1;stroke-miterlimit:10;" d="M 46.46875 17 L 15.15625 17 C 13.1875 17 11.59375 18.59375 11.59375 20.5625 L 11.59375 41.453125 C 11.59375 43.40625 13.1875 45 15.15625 45 L 49.46875 45 C 51.4375 45 53.03125 43.40625 53.03125 41.453125 L 53.03125 20.5625 C 53.03125 18.59375 51.4375 17 49.46875 17 " transform="matrix(0.25,0,0,0.25,0,0)"/>
<path style="fill:none;stroke-width:1.5;stroke-linecap:butt;stroke-linejoin:round;stroke:rgb(17.647059%,20.392157%,41.568627%);stroke-opacity:1;stroke-miterlimit:10;" d="M 11.609375 40.265625 L 53.03125 40.265625 " transform="matrix(0.25,0,0,0.25,0,0)"/>
<path style="fill:none;stroke-width:1.5;stroke-linecap:round;stroke-linejoin:round;stroke:rgb(17.647059%,20.392157%,41.568627%);stroke-opacity:1;stroke-miterlimit:10;" d="M 11.609375 31.96875 L 49.03125 31.96875 " transform="matrix(0.25,0,0,0.25,0,0)"/>
<path style="fill:none;stroke-width:1.5;stroke-linecap:round;stroke-linejoin:round;stroke:rgb(76.470588%,80%,91.372549%);stroke-opacity:1;stroke-miterlimit:10;" d="M 30.46875 22.734375 L 36.4375 22.734375 " transform="matrix(0.25,0,0,0.25,0,0)"/>
<path style="fill:none;stroke-width:1.5;stroke-linecap:round;stroke-linejoin:round;stroke:rgb(17.647059%,20.392157%,41.568627%);stroke-opacity:1;stroke-miterlimit:10;" d="M 18.8125 24.515625 C 18.8125 23.203125 19.53125 22.0625 20.59375 21.453125 C 20.0625 21.140625 19.453125 20.953125 18.8125 20.953125 C 16.84375 20.953125 15.25 22.546875 15.25 24.515625 C 15.25 26.484375 16.84375 28.0625 18.8125 28.0625 C 19.46875 28.0625 20.0625 27.875 20.59375 27.578125 C 19.53125 26.953125 18.8125 25.828125 18.8125 24.515625 Z M 18.8125 24.515625 " transform="matrix(0.25,0,0,0.25,0,0)"/>
<path style="fill:none;stroke-width:1.5;stroke-linecap:round;stroke-linejoin:round;stroke:rgb(17.647059%,20.392157%,41.568627%);stroke-opacity:1;stroke-miterlimit:10;" d="M 22.359375 20.953125 C 21.71875 20.953125 21.109375 21.140625 20.59375 21.453125 C 21.640625 22.0625 22.359375 23.203125 22.359375 24.515625 C 22.359375 25.828125 21.640625 26.953125 20.59375 27.578125 C 21.109375 27.875 21.71875 28.0625 22.359375 28.0625 C 24.328125 28.0625 25.921875 26.484375 25.921875 24.515625 C 25.921875 22.546875 24.328125 20.953125 22.359375 20.953125 Z M 22.359375 20.953125 " transform="matrix(0.25,0,0,0.25,0,0)"/>
<path style="fill:none;stroke-width:1.5;stroke-linecap:round;stroke-linejoin:round;stroke:rgb(17.647059%,20.392157%,41.568627%);stroke-opacity:1;stroke-miterlimit:10;" d="M 22.359375 24.515625 C 22.359375 23.203125 21.640625 22.0625 20.59375 21.453125 C 19.53125 22.0625 18.8125 23.203125 18.8125 24.515625 C 18.8125 25.828125 19.53125 26.953125 20.59375 27.578125 C 21.640625 26.953125 22.359375 25.828125 22.359375 24.515625 Z M 22.359375 24.515625 " transform="matrix(0.25,0,0,0.25,0,0)"/>
<path style=" stroke:none;fill-rule:nonzero;fill:rgb(89.411765%,78.823529%,36.078431%);fill-opacity:1;" d="M 15.398438 11.195312 C 15.398438 11.144531 15.382812 10.894531 15.101562 10.894531 C 15.097656 10.894531 15.097656 10.894531 15.097656 10.894531 C 15.042969 10.890625 15 10.847656 15 10.792969 C 15 10.738281 15.042969 10.695312 15.097656 10.695312 C 15.148438 10.691406 15.398438 10.675781 15.398438 10.394531 C 15.398438 10.339844 15.445312 10.292969 15.5 10.292969 C 15.554688 10.292969 15.601562 10.339844 15.601562 10.394531 C 15.601562 10.675781 15.851562 10.691406 15.902344 10.695312 C 15.957031 10.695312 16 10.738281 16 10.792969 C 16 10.847656 15.957031 10.894531 15.898438 10.894531 C 15.617188 10.894531 15.601562 11.144531 15.601562 11.195312 C 15.597656 11.25 15.554688 11.292969 15.5 11.292969 C 15.445312 11.292969 15.398438 11.25 15.398438 11.195312 Z M 15.398438 11.195312 "/>
<path style=" stroke:none;fill-rule:nonzero;fill:rgb(89.411765%,78.823529%,36.078431%);fill-opacity:1;" d="M 9.507812 3.074219 C 9.507812 3.027344 9.492188 2.773438 9.207031 2.773438 C 9.152344 2.773438 9.109375 2.730469 9.109375 2.675781 C 9.109375 2.621094 9.152344 2.574219 9.207031 2.574219 C 9.257812 2.574219 9.507812 2.558594 9.507812 2.273438 C 9.507812 2.21875 9.554688 2.175781 9.609375 2.175781 C 9.664062 2.175781 9.707031 2.21875 9.707031 2.273438 C 9.707031 2.558594 9.957031 2.574219 10.007812 2.574219 C 10.0625 2.574219 10.109375 2.621094 10.109375 2.675781 C 10.109375 2.730469 10.0625 2.773438 10.007812 2.773438 C 9.726562 2.773438 9.707031 3.027344 9.707031 3.074219 C 9.707031 3.078125 9.707031 3.078125 9.707031 3.078125 C 9.707031 3.132812 9.664062 3.175781 9.609375 3.175781 C 9.554688 3.175781 9.507812 3.128906 9.507812 3.074219 Z M 9.507812 3.074219 "/>
<path style=" stroke:none;fill-rule:nonzero;fill:rgb(89.411765%,78.823529%,36.078431%);fill-opacity:1;" d="M 13.457031 2.125 C 13.457031 2.101562 13.449219 1.976562 13.304688 1.976562 C 13.277344 1.972656 13.257812 1.953125 13.257812 1.925781 C 13.257812 1.898438 13.277344 1.875 13.304688 1.875 C 13.332031 1.875 13.457031 1.867188 13.457031 1.726562 C 13.457031 1.699219 13.476562 1.675781 13.507812 1.675781 C 13.535156 1.675781 13.554688 1.699219 13.554688 1.726562 C 13.554688 1.867188 13.679688 1.875 13.707031 1.875 C 13.734375 1.875 13.757812 1.898438 13.757812 1.925781 C 13.757812 1.953125 13.734375 1.976562 13.707031 1.976562 C 13.566406 1.976562 13.554688 2.101562 13.554688 2.125 C 13.554688 2.152344 13.535156 2.175781 13.507812 2.175781 C 13.480469 2.175781 13.457031 2.152344 13.457031 2.125 Z M 13.457031 2.125 "/>
<path style=" stroke:none;fill-rule:nonzero;fill:rgb(89.411765%,78.823529%,36.078431%);fill-opacity:1;" d="M 10.855469 12.585938 C 10.855469 12.5625 10.847656 12.4375 10.707031 12.4375 L 10.703125 12.4375 C 10.679688 12.433594 10.65625 12.414062 10.65625 12.386719 C 10.65625 12.359375 10.679688 12.335938 10.707031 12.335938 C 10.730469 12.335938 10.855469 12.328125 10.855469 12.1875 C 10.855469 12.160156 10.878906 12.136719 10.90625 12.136719 C 10.933594 12.136719 10.957031 12.160156 10.957031 12.1875 C 10.957031 12.328125 11.082031 12.335938 11.105469 12.335938 C 11.132812 12.335938 11.15625 12.359375 11.15625 12.386719 C 11.15625 12.414062 11.132812 12.4375 11.105469 12.4375 C 10.964844 12.4375 10.957031 12.5625 10.957031 12.585938 C 10.957031 12.613281 10.933594 12.636719 10.90625 12.636719 C 10.878906 12.636719 10.855469 12.613281 10.855469 12.585938 Z M 10.855469 12.585938 "/>
<path style=" stroke:none;fill-rule:nonzero;fill:rgb(89.411765%,78.823529%,36.078431%);fill-opacity:1;" d="M 1.574219 12.710938 C 1.574219 12.6875 1.566406 12.5625 1.425781 12.5625 L 1.421875 12.5625 C 1.398438 12.5625 1.375 12.539062 1.375 12.511719 C 1.375 12.484375 1.398438 12.460938 1.425781 12.460938 C 1.449219 12.460938 1.574219 12.453125 1.574219 12.3125 C 1.574219 12.285156 1.597656 12.261719 1.625 12.261719 C 1.652344 12.261719 1.675781 12.285156 1.675781 12.3125 C 1.675781 12.453125 1.800781 12.460938 1.824219 12.460938 C 1.851562 12.460938 1.875 12.484375 1.875 12.511719 C 1.875 12.539062 1.851562 12.5625 1.824219 12.5625 C 1.683594 12.5625 1.675781 12.6875 1.675781 12.710938 C 1.675781 12.714844 1.675781 12.714844 1.675781 12.714844 C 1.675781 12.742188 1.652344 12.761719 1.625 12.761719 C 1.597656 12.761719 1.574219 12.742188 1.574219 12.710938 Z M 1.574219 12.710938 "/>
<path style=" stroke:none;fill-rule:nonzero;fill:rgb(89.411765%,78.823529%,36.078431%);fill-opacity:1;" d="M 0.398438 5.390625 C 0.398438 5.339844 0.382812 5.089844 0.101562 5.089844 C 0.0976562 5.089844 0.0976562 5.089844 0.0976562 5.089844 C 0.0429688 5.089844 0 5.042969 0 4.992188 C 0 4.933594 0.0429688 4.890625 0.0976562 4.890625 C 0.148438 4.890625 0.398438 4.871094 0.398438 4.589844 C 0.398438 4.535156 0.445312 4.492188 0.5 4.492188 C 0.554688 4.492188 0.601562 4.535156 0.601562 4.589844 C 0.601562 4.871094 0.851562 4.890625 0.902344 4.890625 C 0.957031 4.890625 1 4.933594 1 4.992188 C 1 5.046875 0.957031 5.089844 0.898438 5.089844 C 0.617188 5.089844 0.601562 5.339844 0.601562 5.390625 L 0.601562 5.394531 C 0.597656 5.445312 0.554688 5.492188 0.5 5.492188 C 0.445312 5.492188 0.398438 5.445312 0.398438 5.390625 Z M 0.398438 5.390625 "/>
</g>
</svg>
